<?xml version="1.0" encoding="UTF-8"?>
<!DOCTYPE svg PUBLIC "-//W3C//DTD SVG 1.1//EN" "http://www.w3.org/Graphics/SVG/1.1/DTD/svg11.dtd">
<!-- Creator: CorelDRAW -->
<svg xmlns="http://www.w3.org/2000/svg" xml:space="preserve" width="1.96963in" height="1.80457in" style="shape-rendering:geometricPrecision; text-rendering:geometricPrecision; image-rendering:optimizeQuality; fill-rule:evenodd; clip-rule:evenodd"
viewBox="0 0 0.634804 0.581605"
 xmlns:xlink="http://www.w3.org/1999/xlink">
 <defs>
  <style type="text/css">
   <![CDATA[
    .fil0 {fill:black}
   ]]>
  </style>
 </defs>
 <g id="Layer_x0020_1">
  <metadata id="CorelCorpID_0Corel-Layer"/>
  <path class="fil0" d="M0.344295 0.00172314c0.00026139,-0.000836193 0.000815891,-0.001411 0.00166224,-0.00172314 -0.000281692,0.0147457 0.0014313,0.0294305 0.0041023,0.0439033 0.00437511,0.0197235 0.0123767,0.0401842 0.0290879,0.0526713 0.0131418,0.0103414 0.0310622,0.0130416 0.0471682,0.00955468 0.0151682,-0.0032864 0.0296817,-0.010835 0.0401639,-0.0224148 0.00598659,-0.00665275 0.00973613,-0.0158242 0.00809293,-0.0248447 -0.00191474,-0.0117511 -0.0100381,-0.0212766 -0.0187059,-0.0289051 -0.00821347,-0.00782139 -0.0181222,-0.0134349 -0.0276857,-0.0193619 0.00571378,0.000201752 0.011439,0.000332447 0.0171527,0.000735952 0.00872864,9.00906e-005 0.0173164,0.0018348 0.025974,0.00276109 0.00877813,0.0019655 0.0177479,0.00316459 0.026295,0.00605764 0.0392161,0.0109251 0.0758627,0.0333005 0.100858,0.0657636 0.0407679,0.0515737 0.0476326,0.126792 0.0185955,0.1855 -0.0120442,0.0241684 -0.029834,0.0453435 -0.0510497,0.0619938 -0.00962447,0.00803329 -0.0200763,0.0150984 -0.0308909,0.0214276 -0.00524048,-0.00680375 -0.0108147,-0.013355 -0.0162671,-0.0199963 -0.00782139,-0.00796224 -0.0152596,-0.0163775 -0.0240885,-0.0232713 -0.00549299,-0.00517069 -0.0120442,-0.00894054 -0.0183531,-0.0130022 -0.0139387,-0.00850659 -0.0312551,-0.0124566 -0.0472291,-0.00805233 -0.0149576,0.00469613 -0.0274142,0.0152088 -0.0368788,0.0274738 -0.00738743,0.00910169 -0.0132636,0.019301 -0.0186957,0.0296525 -0.0167911,0.0333602 -0.0270107,0.0695436 -0.0355477,0.105756 -0.00868804,0.0375932 -0.0148865,0.075732 -0.0193213,0.114041 -0.000473293,0.00472659 -0.000876798,0.00947474 -0.00169269,0.0141607 -0.00980719,-0.0673167 -0.0214175,-0.134864 -0.0441254,-0.199197 -0.00883903,-0.0236748 -0.0191195,-0.0472189 -0.0347813,-0.0672558 -0.00931233,-0.0114085 -0.0209137,-0.0220113 -0.0355173,-0.0257811 -0.0137877,-0.003931 -0.0285943,-0.000110393 -0.0407286,0.00689384 -0.0107741,0.00620864 -0.0203085,0.014483 -0.0285537,0.0237662 -0.0125581,0.0131025 -0.0228082,0.0282199 -0.0319898,0.0438221 -0.0115405,-0.00595613 -0.0218298,-0.0139387 -0.0319695,-0.021972 -0.0194215,-0.0164879 -0.0359106,-0.0365451 -0.0476821,-0.0591616 -0.0100089,-0.0188987 -0.0164993,-0.0395993 -0.0195129,-0.0607655 -0.00415305,-0.0286843 -0.00255045,-0.0584269 0.00631903,-0.0861127 0.00877813,-0.0281908 0.026054,-0.0535278 0.0486908,-0.0724164 0.00473674,-0.00367849 0.00951408,-0.00729607 0.0143016,-0.0109048 0.0331787,-0.0226369 0.0723555,-0.0353561 0.111955,-0.0406677 0.0070055,-0.000756254 0.0140503,-0.00102779 0.0210952,-0.00131964 -0.0139691,0.00338538 -0.0279992,0.00951408 -0.0371097,0.0210546 -0.00762979,0.00962447 -0.0116712,0.0227066 -0.008669,0.034841 0.00163305,0.007409 0.00565541,0.0145046 0.0119947,0.018848 0.00566429,0.00383964 0.011812,0.00689384 0.0176578,0.0104619 0.0133144,0.00696363 0.0280385,0.0123564 0.0432879,0.0118729 0.0103312,-0.000111662 0.0205711,-0.00383076 0.0285435,-0.010401 0.0135555,-0.010684 0.0213566,-0.0269105 0.0262151,-0.043128 0.00364804,-0.0114694 0.00533184,-0.0234527 0.00661088,-0.0353866 0.00103795,-0.00603734 0.000383202,-0.0121952 0.000947855,-0.0182719 0.00314429,0.00481668 0.00486743,0.010401 0.00778079,0.0153598 0.00363789,0.00589523 0.00683293,0.012397 0.0126292,0.0165285 0.00343613,0.00245909 0.00848628,0.0024997 0.011892,-3.93353e-005 0.00420381,-0.00300344 0.00689384,-0.00752955 0.00930344,-0.0119846 0.00366834,-0.00579498 0.00602719,-0.012265 0.00866773,-0.018565z"/>
 </g>
</svg>
